<svg xmlns="http://www.w3.org/2000/svg" version="1.1" xmlns:xlink="http://www.w3.org/1999/xlink" xmlns:svgjs="http://svgjs.dev/svgjs" width="1000" height="623" viewBox="0 0 1000 623"><g transform="matrix(1,0,0,1,-0.6060606060606233,0.2522267206477409)"><svg viewBox="0 0 396 247" data-background-color="#ffffff" preserveAspectRatio="xMidYMid meet" height="623" width="1000" xmlns="http://www.w3.org/2000/svg" xmlns:xlink="http://www.w3.org/1999/xlink"><g id="tight-bounds" transform="matrix(1,0,0,1,0.2400000000000091,-0.09999999999999432)"><svg viewBox="0 0 395.52 247.2" height="247.2" width="395.52"><g><svg viewBox="0 0 395.52 247.2" height="247.2" width="395.52"><g transform="matrix(1,0,0,1,32.95999999999998,0)"><svg viewBox="0 0 329.6 247.2" height="247.2" width="329.6"><g><svg viewBox="0 0 329.6 247.2" height="247.2" width="329.6"><g><svg viewBox="0 0 329.6 247.2" height="247.2" width="329.6"><g><svg viewBox="0 0 329.6 247.2" height="247.2" width="329.6"><g><svg viewBox="0 0 329.6 247.2" height="247.2" width="329.6"><g><svg viewBox="0 0 329.6 247.2" height="247.2" width="329.6"><g transform="matrix(1,0,0,1,0,0)"><svg width="329.6" viewBox="4.949999809265137 -35.5 48 36" height="247.2" data-palette-color="#89939e"><path d="M20.15-18.4L17.35-16.8 16.6-18.1 19.4-19.7Q22.85-21.6 22.85-25.75L22.85-25.75Q22.85-33.5 11.05-33.5L11.05-33.5 6.45-33.5 6.45 0 4.95 0 4.95-35 11.05-35Q17.65-35 21-32.58 24.35-30.15 24.35-25.75L24.35-25.75Q24.35-20.75 20.15-18.4L20.15-18.4ZM51.6-7.05L52.95-6.4Q51.6-3.1 49.15-1.3 46.7 0.5 41.8 0.5L41.8 0.5Q35.65 0.5 32.9-3.28 30.15-7.05 30.15-15.05L30.15-15.05 30.15-19.95Q30.15-27.95 32.9-31.73 35.65-35.5 41.8-35.5L41.8-35.5Q46.7-35.5 49.15-33.7 51.6-31.9 52.95-28.6L52.95-28.6 51.6-27.95Q50.45-30.85 48.35-32.43 46.25-34 41.8-34L41.8-34Q39.35-34 37.6-33.38 35.85-32.75 34.45-31.25 33.05-29.75 32.35-26.93 31.65-24.1 31.65-19.95L31.65-19.95 31.65-15.05Q31.65-10.9 32.35-8.08 33.05-5.25 34.45-3.75 35.85-2.25 37.6-1.63 39.35-1 41.8-1L41.8-1Q46.25-1 48.35-2.58 50.45-4.15 51.6-7.05L51.6-7.05Z" opacity="1" transform="matrix(1,0,0,1,0,0)" fill="#89939e" class="undefined-text-0" data-fill-palette-color="primary" id="text-0"></path></svg></g></svg></g></svg></g></svg></g><g></g></svg></g></svg></g></svg></g></svg></g><defs></defs></svg><rect width="395.52" height="247.2" fill="none" stroke="none" visibility="hidden"></rect></g></svg></g></svg>